<svg xmlns="http://www.w3.org/2000/svg" width="472" height="627" viewBox="0 0 472 627">
  <g id="bookmark" fill="none">
    <path d="M134,0H338A134,134,0,0,1,472,134V627L241.085,477.763,0,627V134A134,134,0,0,1,134,0Z" stroke="none"/>
    <path d="M 134 32 C 77.75698852539063 32 32 77.75701904296875 32 134 L 32 493 L 32 569.5565185546875 L 224.2421112060547 450.5546875 L 241.4534454345703 439.9004516601563 L 258.4542236328125 450.8876647949219 L 440 568.2176513671875 L 440 493 L 440 134 C 440 77.75701904296875 394.2429809570313 32 338 32 L 134 32 M 134 0 L 338 0 C 412.006103515625 0 472 59.9937744140625 472 134 L 472 493 C 472 567.006103515625 472 627 472 627 L 241.0848846435547 477.763427734375 L 0 627 C 0 627 0 567.006103515625 0 493 L 0 134 C 0 59.9937744140625 59.9937744140625 0 134 0 Z" stroke="none" fill="#2a2a2a"/>
  </g>
</svg>
