<svg xmlns="http://www.w3.org/2000/svg" width="554.999" height="523" viewBox="0 0 554.999 523">
  <g id="Camera" transform="translate(69 1382)">
    <g id="Union_3" data-name="Union 3" transform="translate(-69 -1363)" fill="none">
      <path d="M101,504A101,101,0,0,1,0,403V138.936a101,101,0,0,1,101-101h59.062V24a43,43,0,0,1,43-43H351.74a43,43,0,0,1,43,43V37.936H454a101,101,0,0,1,101,101V403A101,101,0,0,1,454,504Z" stroke="none"/>
      <path d="M 453.9996032714844 472.0000305175781 C 492.0462036132813 472.0000305175781 522.9993896484375 441.0464172363281 522.9993896484375 402.9993286132813 L 522.9993896484375 138.9357299804688 C 522.9993896484375 100.8891296386719 492.0462036132813 69.93592834472656 453.9996032714844 69.93592834472656 L 394.739990234375 69.93592834472656 L 362.739990234375 69.93592834472656 L 362.739990234375 37.93593215942383 L 362.739990234375 24.00032997131348 C 362.739990234375 17.93482971191406 357.8052978515625 13.00013065338135 351.7398071289063 13.00013065338135 L 203.0615997314453 13.00013065338135 C 196.99609375 13.00013065338135 192.0614013671875 17.93482971191406 192.0614013671875 24.00032997131348 L 192.0614013671875 37.93593215942383 L 192.0614013671875 69.93592834472656 L 160.0614013671875 69.93592834472656 L 100.9997940063477 69.93592834472656 C 62.95319366455078 69.93592834472656 31.9999942779541 100.8891296386719 31.9999942779541 138.9357299804688 L 31.9999942779541 402.9993286132813 C 31.9999942779541 441.0464172363281 62.95319366455078 472.0000305175781 100.9997940063477 472.0000305175781 L 453.9996032714844 472.0000305175781 M 453.9996032714844 504.0000305175781 L 100.9997940063477 504.0000305175781 C 45.2195930480957 504.0000305175781 -5.175781097932486e-06 458.7804260253906 -5.175781097932486e-06 402.9993286132813 L -5.175781097932486e-06 138.9357299804688 C -5.175781097932486e-06 83.15463256835938 45.2195930480957 37.93593215942383 100.9997940063477 37.93593215942383 L 160.0614013671875 37.93593215942383 L 160.0614013671875 24.00032997131348 C 160.0614013671875 0.2520305216312408 179.3132934570313 -18.99987030029297 203.0615997314453 -18.99987030029297 L 351.7398071289063 -18.99987030029297 C 375.4880981445313 -18.99987030029297 394.739990234375 0.2520305216312408 394.739990234375 24.00032997131348 L 394.739990234375 37.93593215942383 L 453.9996032714844 37.93593215942383 C 509.7807006835938 37.93593215942383 554.9993896484375 83.15463256835938 554.9993896484375 138.9357299804688 L 554.9993896484375 402.9993286132813 C 554.9993896484375 458.7804260253906 509.7807006835938 504.0000305175781 453.9996032714844 504.0000305175781 Z" stroke="none" fill="#2a2a2a"/>
    </g>
    <g id="Ellipse_4" data-name="Ellipse 4" transform="translate(67 -1248)" fill="none" stroke="#2a2a2a" stroke-width="32">
      <circle cx="141" cy="141" r="141" stroke="none"/>
      <circle cx="141" cy="141" r="125" fill="none"/>
    </g>
  </g>
</svg>
