<svg xmlns="http://www.w3.org/2000/svg" width="565.621" height="557" viewBox="0 0 565.621 557">
  <g id="comment" transform="translate(-780 725)">
    <g id="Union_4" data-name="Union 4" transform="translate(780 -725)" fill="none">
      <path d="M0,278.5C0,124.689,124.689,0,278.5,0S557,124.689,557,278.5a277.171,277.171,0,0,1-46.449,154.05l54.069,99.735a8,8,0,0,1-10.346,11.094l-102.66-46.7A277.326,277.326,0,0,1,278.5,557C124.689,557,0,432.311,0,278.5Z" stroke="none"/>
      <path d="M 278.4996032714844 31.99993896484375 C 142.5792846679688 31.99993896484375 32 142.5792541503906 32 278.4995727539063 C 32 414.4203491210938 142.5792846679688 525.0000610351563 278.4996032714844 525.0000610351563 C 334.7749938964844 525.0000610351563 387.753173828125 506.5414733886719 431.7069091796875 471.6197509765625 L 447.0395812988281 459.4378662109375 L 464.8645935058594 467.5472717285156 L 502.375244140625 484.6126403808594 L 482.4187927246094 447.8009643554688 L 473.2376098632813 430.8652648925781 L 483.9076843261719 414.8258666992188 C 510.7905883789063 374.415283203125 525.0001220703125 327.2743530273438 525.0001220703125 278.4995727539063 C 525.0001220703125 142.5792541503906 414.42041015625 31.99993896484375 278.4996032714844 31.99993896484375 M 278.4996032714844 -6.103515625e-05 C 432.3114013671875 -6.103515625e-05 557.0001220703125 124.6887512207031 557.0001220703125 278.4995727539063 C 557.0001220703125 335.465576171875 539.9024047851563 388.4283447265625 510.55078125 432.5499572753906 L 564.6195068359375 532.28515625 C 567.681396484375 537.9342041015625 563.25830078125 544.1300659179688 557.6377563476563 544.1300659179688 C 556.5458984375 544.1300659179688 555.4092407226563 543.8963623046875 554.2730712890625 543.3794555664063 L 451.6131896972656 496.674560546875 C 404.0814819335938 534.43896484375 343.924072265625 557.0000610351563 278.4996032714844 557.0000610351563 C 124.6886901855469 557.0000610351563 0 432.3113708496094 0 278.4995727539063 C 0 124.6887512207031 124.6886901855469 -6.103515625e-05 278.4996032714844 -6.103515625e-05 Z" stroke="none" fill="#2a2a2a"/>
    </g>
  </g>
</svg>
