<svg xmlns="http://www.w3.org/2000/svg" width="684.42" height="709.635" viewBox="0 0 684.42 709.635">
  <g id="message" transform="translate(-738.075 1482.98)">
    <g id="Path_15" data-name="Path 15" transform="translate(1422.495 -1049.08) rotate(180)" fill="none">
      <path d="M513.361,0,684.42,262.139,0,261.984Z" stroke="none"/>
      <path d="M 502.2828369140625 41.57943725585938 L 133.0429077148438 230.0140533447266 L 625.3194580078125 230.1258392333984 L 502.2828369140625 41.57943725585938 M 513.360595703125 -3.0517578125e-05 L 684.4204711914063 262.1392517089844 L 0 261.9838562011719 L 513.360595703125 -3.0517578125e-05 Z" stroke="none" fill="#2a2a2a"/>
    </g>
    <g id="Path_17" data-name="Path 17" transform="matrix(-0.602, 0.799, -0.799, -0.602, 1422.445, -1311.052)" fill="none">
      <path d="M503.993,285.683,673.282,29.949,0,0Z" stroke="none"/>
      <path d="M 493.7931823730469 243.1177825927734 L 615.4055786132813 59.40600967407227 L 131.739501953125 37.89163589477539 L 493.7931823730469 243.1177825927734 M 503.9925537109375 285.6826171875 L 7.170553726609796e-05 1.447610338800587e-05 L 673.2816162109375 29.94883728027344 L 503.9925537109375 285.6826171875 Z" stroke="none" fill="#2a2a2a"/>
    </g>
  </g>
</svg>
