<svg xmlns="http://www.w3.org/2000/svg" width="523" height="523" viewBox="0 0 523 523">
  <g id="scan" transform="translate(-1859 1998)">
    <g id="Subtraction_5" data-name="Subtraction 5" transform="translate(1716.5 -2140)" fill="none">
      <path d="M549.5,665h-51V634.5H552a82.093,82.093,0,0,0,82-82v-54h31.5V549a116.838,116.838,0,0,1-2.356,23.378,115.387,115.387,0,0,1-17.455,41.478,116.338,116.338,0,0,1-51.036,42.027,115.429,115.429,0,0,1-21.775,6.759A116.815,116.815,0,0,1,549.5,665Zm-240,0h-51a116.809,116.809,0,0,1-23.377-2.357,115.373,115.373,0,0,1-41.479-17.454,116.337,116.337,0,0,1-42.027-51.036,115.454,115.454,0,0,1-6.759-21.775A116.889,116.889,0,0,1,142.5,549V498.5H174v54a82.093,82.093,0,0,0,82,82h53.5V665Zm356-355.5H634v-56a82.093,82.093,0,0,0-82-82H498.5V142h51a116.907,116.907,0,0,1,23.378,2.356,115.379,115.379,0,0,1,41.478,17.455,116.329,116.329,0,0,1,42.027,51.037,115.434,115.434,0,0,1,6.76,21.774A116.838,116.838,0,0,1,665.5,258Zm-491.5,0H142.5V258a116.89,116.89,0,0,1,2.357-23.378,115.378,115.378,0,0,1,17.454-41.478,116.331,116.331,0,0,1,51.037-42.027,115.434,115.434,0,0,1,21.775-6.76A116.9,116.9,0,0,1,258.5,142h51v29.5H256a82.093,82.093,0,0,0-82,82Z" stroke="none"/>
      <path d="M 549.49951171875 665.000244140625 L 498.5001220703125 665.000244140625 L 498.5001220703125 634.5 L 551.999755859375 634.5 C 597.2147216796875 634.5 633.999755859375 597.7150268554688 633.999755859375 552.500244140625 L 633.999755859375 498.5001220703125 L 665.4996337890625 498.5001220703125 L 665.499755859375 549 C 665.499755859375 556.8735961914063 664.70703125 564.7393188476563 663.1435546875 572.37841796875 C 661.618896484375 579.825927734375 659.3445434570313 587.1519165039063 656.383544921875 594.1530151367188 C 653.4765014648438 601.0264282226563 649.8782958984375 607.6558227539063 645.6888427734375 613.856689453125 C 641.5384521484375 620.0010375976563 636.7728271484375 625.7770385742188 631.5245971679688 631.0242309570313 C 626.2767333984375 636.272216796875 620.5004272460938 641.0380249023438 614.3561401367188 645.1893310546875 C 608.1556396484375 649.3787231445313 601.5263061523438 652.976806640625 594.6526489257813 655.884033203125 C 587.65234375 658.8447875976563 580.3262329101563 661.1188354492188 572.8780517578125 662.6430053710938 C 565.237548828125 664.2070922851563 557.371826171875 665.000244140625 549.49951171875 665.000244140625 Z M 309.5001220703125 665.000244140625 L 258.4997253417969 665.000244140625 C 250.6281280517578 665.000244140625 242.7628326416016 664.2070922851563 235.1223297119141 662.6430053710938 C 227.6730194091797 661.1188354492188 220.346923828125 658.8447265625 213.3477325439453 655.884033203125 C 206.4733276367188 652.9765014648438 199.8437194824219 649.3782958984375 193.6431274414063 645.1893310546875 C 187.5008239746094 641.0391845703125 181.7248229980469 636.2734375 176.4756317138672 631.0242309570313 C 171.2245178222656 625.7728881835938 166.4586181640625 619.9968872070313 162.3105316162109 613.856689453125 C 158.1211242675781 607.6558837890625 154.5230255126953 601.026611328125 151.6158294677734 594.1530151367188 C 148.6543273925781 587.1498413085938 146.3803253173828 579.8237915039063 144.8568267822266 572.37841796875 C 143.2928314208984 564.7333374023438 142.4997253417969 556.8677368164063 142.4997253417969 549 L 142.4997253417969 498.5001220703125 L 173.9997253417969 498.5001220703125 L 173.9997253417969 552.500244140625 C 173.9997253417969 597.7150268554688 210.7847290039063 634.5 255.9996185302734 634.5 L 309.5001220703125 634.5 L 309.5001220703125 664.9990844726563 L 309.5001220703125 665.000244140625 Z M 665.499755859375 309.5001220703125 L 665.4977416992188 309.5001220703125 L 665.4977416992188 309.4992065429688 L 633.9996337890625 309.5001220703125 L 633.999755859375 253.5003204345703 C 633.999755859375 208.2854156494141 597.2147216796875 171.5004119873047 551.999755859375 171.5004119873047 L 498.5001220703125 171.5004119873047 L 498.5001220703125 142.0002136230469 L 549.49951171875 142.0002136230469 C 557.36865234375 142.0002136230469 565.2343139648438 142.7930145263672 572.8780517578125 144.3564147949219 C 580.3265380859375 145.8810119628906 587.6526489257813 148.1554107666016 594.6526489257813 151.1163177490234 C 601.527099609375 154.0234069824219 608.1564331054688 157.6216125488281 614.3561401367188 161.8110198974609 C 620.497314453125 165.9593200683594 626.2734985351563 170.7251129150391 631.5245971679688 175.9761199951172 C 636.7730102539063 181.2236175537109 641.5386352539063 186.9996185302734 645.6888427734375 193.1436157226563 C 649.8787231445313 199.3451080322266 653.4769287109375 205.9747161865234 656.383544921875 212.8482208251953 C 659.3446044921875 219.8485107421875 661.618896484375 227.1742095947266 663.1435546875 234.6219177246094 C 664.70703125 242.2610168457031 665.499755859375 250.126708984375 665.499755859375 258.0003051757813 L 665.499755859375 309.5001220703125 Z M 173.9997253417969 309.5001220703125 L 173.9977264404297 309.5001220703125 L 173.9977264404297 309.4992065429688 L 142.4997253417969 309.5001220703125 L 142.4997253417969 258.0003051757813 C 142.4997253417969 250.1327209472656 143.2928314208984 242.2671203613281 144.8568267822266 234.6219177246094 C 146.3804321289063 227.1758117675781 148.6545257568359 219.8501129150391 151.6158294677734 212.8482208251953 C 154.5226287841797 205.974609375 158.1207275390625 199.3450164794922 162.3105316162109 193.1436157226563 C 166.4607238769531 187.0003204345703 171.2265319824219 181.2243194580078 176.4756317138672 175.9761199951172 C 181.7220306396484 170.7288208007813 187.4980316162109 165.9630126953125 193.6431274414063 161.8110198974609 C 199.8436279296875 157.6222076416016 206.4732208251953 154.0240173339844 213.3477325439453 151.1163177490234 C 220.3477325439453 148.1554107666016 227.6737213134766 145.8810119628906 235.1223297119141 144.3564147949219 C 242.7660217285156 142.7930145263672 250.6313323974609 142.0002136230469 258.4997253417969 142.0002136230469 L 309.5001220703125 142.0002136230469 L 309.5001220703125 171.5004119873047 L 255.9996185302734 171.5004119873047 C 210.7847290039063 171.5004119873047 173.9997253417969 208.2854156494141 173.9997253417969 253.5003204345703 L 173.9997253417969 309.5001220703125 Z" stroke="none" fill="#2a2a2a"/>
    </g>
    <g id="Rectangle_15" data-name="Rectangle 15" transform="translate(2006 -1851)" fill="none" stroke="#2a2a2a" stroke-width="32">
      <rect width="229" height="229" rx="66" stroke="none"/>
      <rect x="16" y="16" width="197" height="197" rx="50" fill="none"/>
    </g>
  </g>
</svg>
